<?xml version="1.0" encoding="utf-8"?><svg width="199" height="29" viewBox="0 0 199 29" xmlns="http://www.w3.org/2000/svg"><title>Logo</title><desc>Created with Sketch.</desc><g fill="none"><path d="M15.454 13.263c0-2.087-1.69-3.789-3.762-3.789s-3.762 1.702-3.762 3.789 1.69 3.789 3.762 3.789 3.762-1.702 3.762-3.789zm1.881 0c0 3.138-2.528 5.684-5.643 5.684-3.115 0-5.643-2.546-5.643-5.684 0-3.138 2.528-5.684 5.643-5.684 3.115 0 5.643 2.546 5.643 5.684zm1.881 0c0-4.189-3.365-7.579-7.524-7.579s-7.524 3.39-7.524 7.579 3.365 7.579 7.524 7.579 7.524-3.39 7.524-7.579zm1.881 0c0 5.225-4.218 9.474-9.405 9.474-5.187 0-9.405-4.248-9.405-9.474 0-5.225 4.218-9.474 9.405-9.474 5.187 0 9.405 4.248 9.405 9.474zm1.881 0c0-6.276-5.055-11.368-11.286-11.368s-11.286 5.092-11.286 11.368c0 6.276 5.055 11.368 11.286 11.368s11.286-5.092 11.286-11.368z" fill="#06A1F2"/><path d="M34.297 23.285c-1.234-.019-2.236-.152-3.005-.399-.769-.247-1.377-.593-1.823-1.04-.446-.446-.75-.987-.911-1.623-.161-.636-.242-1.353-.242-2.15v-16.49l4.244-.684v16.319c0 .38.028.722.085 1.025.057.304.166.56.328.769.161.209.394.38.698.513.304.133.712.218 1.225.256l-.598 3.503zm2.307-7.661c0-1.329.204-2.492.612-3.489.408-.997.945-1.827 1.609-2.492.665-.665 1.429-1.168 2.293-1.509.864-.342 1.752-.513 2.663-.513 2.127 0 3.807.65 5.041 1.951 1.234 1.301 1.851 3.214 1.851 5.739 0 .247-.009.517-.028.812l-.057.783h-9.626c.095.873.503 1.566 1.225 2.079.722.513 1.69.769 2.905.769.778 0 1.543-.071 2.293-.214.75-.142 1.362-.318 1.837-.527l.57 3.446c-.228.114-.532.228-.911.342-.38.114-.802.214-1.267.299-.465.085-.964.157-1.495.214-.532.057-1.063.085-1.595.085-1.348 0-2.521-.199-3.517-.598-.997-.399-1.823-.945-2.478-1.638-.655-.693-1.139-1.514-1.452-2.464-.313-.949-.47-1.975-.47-3.076zm9.968-1.623c-.019-.361-.081-.712-.185-1.054-.104-.342-.266-.646-.484-.911-.218-.266-.494-.484-.826-.655-.332-.171-.745-.256-1.239-.256-.475 0-.883.081-1.225.242-.342.161-.627.375-.854.641-.228.266-.403.574-.527.926-.123.351-.214.707-.271 1.068h5.611zm13.101 6.038c.418 0 .816-.009 1.196-.028.38-.019.684-.047.911-.085v-3.218c-.171-.038-.427-.076-.769-.114-.342-.038-.655-.057-.94-.057-.399 0-.774.024-1.125.071-.351.047-.66.138-.926.271s-.475.313-.627.541c-.152.228-.228.513-.228.854 0 .665.223 1.125.669 1.381.446.256 1.059.384 1.837.384zm-.342-12.417c1.253 0 2.297.142 3.133.427.835.285 1.505.693 2.008 1.225.503.532.859 1.177 1.068 1.937.209.759.313 1.604.313 2.535v8.829c-.608.133-1.452.29-2.535.47-1.082.18-2.392.271-3.93.271-.968 0-1.846-.085-2.634-.256-.788-.171-1.467-.451-2.036-.84-.57-.389-1.006-.897-1.31-1.524-.304-.627-.456-1.396-.456-2.307 0-.873.176-1.614.527-2.221.351-.608.821-1.092 1.41-1.452.589-.361 1.263-.622 2.022-.783.759-.161 1.547-.242 2.364-.242.551 0 1.04.024 1.467.071.427.047.774.109 1.04.185v-.399c0-.722-.218-1.301-.655-1.737-.437-.437-1.196-.655-2.278-.655-.722 0-1.434.052-2.136.157-.703.104-1.31.252-1.823.441l-.541-3.418c.247-.076.555-.157.926-.242.37-.085.774-.161 1.21-.228.437-.066.897-.123 1.381-.171.484-.047.973-.071 1.467-.071zm13.984 7.775c0 1.31.294 2.364.883 3.161.589.797 1.462 1.196 2.62 1.196.38 0 .731-.014 1.054-.043.323-.028.589-.062.797-.1v-7.718c-.266-.171-.612-.313-1.04-.427-.427-.114-.859-.171-1.296-.171-2.013 0-3.019 1.367-3.019 4.101zm9.598 7.12c-.38.114-.816.223-1.31.328-.494.104-1.011.195-1.552.271-.541.076-1.092.138-1.652.185-.56.047-1.096.071-1.609.071-1.234 0-2.335-.18-3.304-.541-.968-.361-1.785-.878-2.449-1.552-.665-.674-1.172-1.49-1.524-2.449-.351-.959-.527-2.036-.527-3.233 0-1.215.152-2.312.456-3.289.304-.978.74-1.808 1.31-2.492.57-.684 1.267-1.206 2.093-1.566.826-.361 1.771-.541 2.834-.541.589 0 1.115.057 1.581.171.465.114.935.275 1.41.484v-6.778l4.244-.684v21.617zm7.693.484h-2.649v-14.81h2.649v14.81zm-1.339-17.487c-.475 0-.878-.157-1.21-.47-.332-.313-.498-.736-.498-1.267 0-.532.166-.954.498-1.267.332-.313.736-.47 1.21-.47.475 0 .878.157 1.21.47.332.313.498.736.498 1.267 0 .532-.166.954-.498 1.267-.332.313-.736.47-1.21.47zm6.335 3.104c.608-.152 1.415-.313 2.421-.484 1.006-.171 2.164-.256 3.475-.256 1.177 0 2.155.166 2.933.498.778.332 1.4.797 1.865 1.396.465.598.793 1.315.983 2.15.19.835.285 1.756.285 2.763v8.316h-2.649v-7.747c0-.911-.062-1.69-.185-2.335-.123-.646-.328-1.168-.612-1.566-.285-.399-.665-.688-1.139-.869-.475-.18-1.063-.271-1.766-.271-.285 0-.579.009-.883.028-.304.019-.593.043-.869.071-.275.028-.522.062-.74.1l-.47.085v12.503h-2.649v-14.383zm14.367 19.708c-.228 0-.522-.028-.883-.085-.361-.057-.665-.133-.911-.228l.342-2.165c.19.057.408.104.655.142.247.038.475.057.684.057.911 0 1.562-.28 1.951-.84.389-.56.584-1.381.584-2.464v-14.553h2.649v14.525c0 1.899-.432 3.308-1.296 4.229-.864.921-2.122 1.381-3.774 1.381zm3.731-22.813c-.475 0-.878-.157-1.21-.47-.332-.313-.498-.736-.498-1.267 0-.532.166-.954.498-1.267.332-.313.736-.47 1.21-.47.475 0 .878.157 1.21.47.332.313.498.736.498 1.267 0 .532-.166.954-.498 1.267-.332.313-.736.47-1.21.47zm5.51 10.111c0-1.31.19-2.454.57-3.432.38-.978.883-1.79 1.509-2.435.627-.646 1.348-1.13 2.165-1.452.816-.323 1.652-.484 2.506-.484 1.994 0 3.522.622 4.585 1.865 1.063 1.244 1.595 3.138 1.595 5.682v.441c0 .18-.009.347-.028.498h-10.139c.114 1.538.56 2.706 1.339 3.503.778.797 1.994 1.196 3.645 1.196.93 0 1.714-.081 2.35-.242.636-.161 1.115-.318 1.438-.47l.37 2.221c-.323.171-.888.351-1.695.541-.807.19-1.723.285-2.748.285-1.291 0-2.407-.195-3.346-.584-.94-.389-1.714-.926-2.321-1.609-.608-.684-1.059-1.495-1.353-2.435-.294-.94-.441-1.97-.441-3.09zm10.167-1.452c.019-1.196-.28-2.179-.897-2.948-.617-.769-1.467-1.153-2.549-1.153-.608 0-1.144.119-1.609.356-.465.237-.859.546-1.182.926-.323.38-.574.816-.755 1.31-.18.494-.299.997-.356 1.509h7.348zm13.456 9.171c-1.196 0-2.245-.19-3.147-.57-.902-.38-1.661-.911-2.278-1.595-.617-.684-1.078-1.495-1.381-2.435-.304-.94-.456-1.979-.456-3.119 0-1.139.166-2.183.498-3.133.332-.949.802-1.771 1.41-2.464.608-.693 1.353-1.234 2.236-1.623.883-.389 1.865-.584 2.948-.584.665 0 1.329.057 1.994.171.665.114 1.301.294 1.908.541l-.598 2.25c-.399-.19-.859-.342-1.381-.456-.522-.114-1.078-.171-1.666-.171-1.481 0-2.615.465-3.403 1.396-.788.93-1.182 2.288-1.182 4.073 0 .797.09 1.528.271 2.193.18.665.465 1.234.854 1.709.389.475.888.84 1.495 1.096.608.256 1.348.384 2.221.384.703 0 1.339-.066 1.908-.199.57-.133 1.016-.275 1.339-.427l.37 2.221c-.152.095-.37.185-.655.271-.285.085-.608.161-.968.228-.361.066-.745.123-1.153.171-.408.047-.802.071-1.182.071zm9.725-15.152h5.611v2.221h-5.611v6.835c0 .74.057 1.353.171 1.837.114.484.285.864.513 1.139.228.275.513.47.854.584.342.114.74.171 1.196.171.797 0 1.438-.09 1.922-.271l1.011-.384.513 2.193c-.266.133-.731.299-1.396.498-.665.199-1.424.299-2.278.299-1.006 0-1.837-.128-2.492-.384s-1.182-.641-1.581-1.153c-.399-.513-.679-1.144-.84-1.894-.161-.75-.242-1.619-.242-2.606v-13.215l2.649-.456v4.585zm12.06 14.81h-2.649v-14.81h2.649v14.81zm-1.339-17.487c-.475 0-.878-.157-1.21-.47-.332-.313-.498-.736-.498-1.267 0-.532.166-.954.498-1.267.332-.313.736-.47 1.21-.47.475 0 .878.157 1.21.47.332.313.498.736.498 1.267 0 .532-.166.954-.498 1.267-.332.313-.736.47-1.21.47zm19.408 10.082c0 1.177-.171 2.24-.513 3.19-.342.949-.821 1.766-1.438 2.449-.617.684-1.353 1.21-2.207 1.581-.854.37-1.785.555-2.791.555s-1.937-.185-2.791-.555c-.854-.37-1.59-.897-2.207-1.581-.617-.684-1.096-1.5-1.438-2.449-.342-.949-.513-2.013-.513-3.19 0-1.158.171-2.217.513-3.176.342-.959.821-1.78 1.438-2.464.617-.684 1.353-1.21 2.207-1.581.854-.37 1.785-.555 2.791-.555s1.937.185 2.791.555c.854.37 1.59.897 2.207 1.581.617.684 1.096 1.505 1.438 2.464.342.959.513 2.017.513 3.176zm-2.763 0c0-1.671-.375-2.995-1.125-3.973-.75-.978-1.771-1.467-3.062-1.467s-2.312.489-3.062 1.467c-.75.978-1.125 2.302-1.125 3.973 0 1.671.375 2.995 1.125 3.973.75.978 1.771 1.467 3.062 1.467s2.312-.489 3.062-1.467c.75-.978 1.125-2.302 1.125-3.973zm6.934-6.978c.608-.152 1.415-.313 2.421-.484 1.006-.171 2.164-.256 3.475-.256 1.177 0 2.155.166 2.933.498.778.332 1.4.797 1.865 1.396.465.598.793 1.315.983 2.15.19.835.285 1.756.285 2.763v8.316h-2.649v-7.747c0-.911-.062-1.69-.185-2.335-.123-.646-.328-1.168-.612-1.566-.285-.399-.665-.688-1.139-.869-.475-.18-1.063-.271-1.766-.271-.285 0-.579.009-.883.028-.304.019-.593.043-.869.071-.275.028-.522.062-.74.1l-.47.085v12.503h-2.649v-14.383z" fill="#33495F"/></g></svg>